<svg xmlns="http://www.w3.org/2000/svg" xmlns:xlink="http://www.w3.org/1999/xlink" viewBox="0 0 516.19 221.87"><defs><style>.cls-1{font-size:141.25px;fill:#fff;font-family:OriginTechDemoRegular, Origin Tech Demo;}.cls-2{fill:url(#linear-gradient);}.cls-3{fill:url(#linear-gradient-2);}.cls-4{fill:url(#linear-gradient-3);}.cls-5{fill:url(#linear-gradient-4);}.cls-6{fill:url(#linear-gradient-5);}.cls-7{fill:url(#linear-gradient-6);}.cls-8{fill:url(#linear-gradient-7);}.cls-9{fill:url(#linear-gradient-8);}.cls-10{fill:url(#New_Gradient_Swatch_copy_15);}.cls-11{fill:url(#New_Gradient_Swatch_copy_15-2);}.cls-12{fill:url(#New_Gradient_Swatch_copy_15-3);}</style><linearGradient id="linear-gradient" x1="37.94" y1="123.46" x2="387.34" y2="259.95" gradientUnits="userSpaceOnUse"><stop offset="0" stop-color="#008cff"/><stop offset="0.28" stop-color="#2aadf5"/><stop offset="1" stop-color="#93ffdc"/></linearGradient><linearGradient id="linear-gradient-2" x1="18.29" y1="173.78" x2="367.69" y2="310.27" xlink:href="#linear-gradient"/><linearGradient id="linear-gradient-3" x1="51.95" y1="87.61" x2="401.35" y2="224.1" xlink:href="#linear-gradient"/><linearGradient id="linear-gradient-4" x1="55.15" y1="79.43" x2="404.54" y2="215.91" xlink:href="#linear-gradient"/><linearGradient id="linear-gradient-5" x1="57.37" y1="73.73" x2="406.77" y2="210.22" xlink:href="#linear-gradient"/><linearGradient id="linear-gradient-6" x1="8.25" y1="199.48" x2="357.65" y2="335.96" xlink:href="#linear-gradient"/><linearGradient id="linear-gradient-7" x1="23.36" y1="160.79" x2="372.76" y2="297.27" xlink:href="#linear-gradient"/><linearGradient id="linear-gradient-8" x1="44.97" y1="105.46" x2="394.38" y2="241.94" xlink:href="#linear-gradient"/><radialGradient id="New_Gradient_Swatch_copy_15" cx="491.3" cy="44.06" r="22.19" gradientTransform="translate(3.32 167.5) rotate(-14.54)" gradientUnits="userSpaceOnUse"><stop offset="0" stop-color="#ff63ce"/><stop offset="1" stop-color="#9f19ab"/></radialGradient><radialGradient id="New_Gradient_Swatch_copy_15-2" cx="443.31" cy="-29.7" r="20.19" xlink:href="#New_Gradient_Swatch_copy_15"/><radialGradient id="New_Gradient_Swatch_copy_15-3" cx="478.75" cy="1.54" r="21.15" xlink:href="#New_Gradient_Swatch_copy_15"/></defs><g id="Layer_2" data-name="Layer 2"><g id="Layer_1-2" data-name="Layer 1"><text class="cls-1" transform="translate(0 178.57)">INIZIO</text><path class="cls-2" d="M333.92,212.19H185.32a2.14,2.14,0,1,1,0-4.27h148.6a2.14,2.14,0,1,1,0,4.27Z"/><path class="cls-3" d="M167.91,212.19H54.4a2.14,2.14,0,1,1,0-4.27H167.91a2.14,2.14,0,0,1,0,4.27Z"/><path class="cls-4" d="M379.35,212.19H351.44a2.14,2.14,0,0,1,0-4.27h27.91a2.14,2.14,0,0,1,0,4.27Z"/><path class="cls-5" d="M389.55,212.19a2.14,2.14,0,1,1,0-4.27h0a2.14,2.14,0,0,1,0,4.27Z"/><path class="cls-6" d="M412.27,212.19H400.45a2.14,2.14,0,0,1,0-4.27h11.82a2.14,2.14,0,1,1,0,4.27Z"/><path class="cls-7" d="M41.24,212.19H29.42a2.14,2.14,0,0,1,0-4.27H41.24a2.14,2.14,0,1,1,0,4.27Z"/><path class="cls-8" d="M268.68,221.87H79.84a2.14,2.14,0,0,1,0-4.28H268.68a2.14,2.14,0,1,1,0,4.28Z"/><path class="cls-9" d="M361.86,221.87H313.17a2.14,2.14,0,0,1,0-4.28h48.69a2.14,2.14,0,0,1,0,4.28Z"/><path class="cls-10" d="M484.68,90c-6.34,1.64-11.95,3.12-17.58,4.55-1.72.44-3.56,1-4.61-1.25.24-.45.33-.88.6-1.1,8.48-7,17-13.93,26.74-19.06a14.73,14.73,0,0,1,3.93-1.56c.95-.18,2,.29,3.8.59l-5.67,10c1.22.11,2.09.43,2.76.19,1.56-.57,3-1.43,4.54-2.16q6.1-2.92,12.22-5.83a3,3,0,0,1,1.47-.43c1,.09,2.21.07,2.81.64,1,1,.27,2.21-.52,3.09a37.13,37.13,0,0,1-4.06,4.16c-7.59,6.23-15.24,12.38-22.9,18.54-1.18.95-2.64,2.49-4,1.19-.88-.83-1-2.81-.92-4.23A68.57,68.57,0,0,1,484.68,90Zm2.69-1.68c-.63,2.58-1.25,4.52-1.53,6.51-.12.88.15,2.29.73,2.65a3,3,0,0,0,2.72-.45c3.28-2.7,6.41-5.58,9.59-8.39l-.42-.51-9.46,6c.07-7.74-1.12-8.67-7.16-5.9Z"/><path class="cls-11" d="M417.42,15.25a11.69,11.69,0,0,1,4.21,5.1,9.68,9.68,0,0,0,.94,2.12c.42.53,1.18,1.16,1.72,1.1s1.13-1,1.18-1.58c.23-2.82.25-5.66.41-8.49.17-3.22.29-6.45.65-9.65.18-1.57.15-3.72,2.43-3.85,2-.11,2.42,1.75,2.75,3.23,1.69,7.57,3.37,15.15,4.9,22.75.76,3.8,1.25,7.65,1.71,11.5.11.92-.11,2.48-.66,2.74a4.29,4.29,0,0,1-3.17-.2,16,16,0,0,1-3.11-2.28c-1.21-.94-2.41-1.89-3.95-3.11-1.2,4.46-2.29,8.53-3.4,12.61-.6,2.24-1.12,4.52-1.93,6.69a2.93,2.93,0,0,1-2.1,1.25c-.35,0-1.15-.93-1.27-1.54-2-10.52-3.85-21.07-3.75-31.84C415,19.54,414.82,17.08,417.42,15.25ZM424.2,35.9l-.13.14v-.21c.22-.32.43-.64.64-1,.82-1.06,1.64-2.11,2.66-3.44A50,50,0,0,0,432,35.54a4.23,4.23,0,0,0,3.07.67c.43-.1.87-1.83.68-2.68-.87-3.94-2-7.83-3-11.74h-.28c.17,3.52.34,7,.52,10.89-2.47-1.11-4.13-3.59-6.7-2.13a3.44,3.44,0,0,0-1.46,4.39Z"/><path class="cls-12" d="M464.65,54.34c-5.09,4.09-9.69,7.83-14.34,11.51-1.32,1-2.77,2.16-4.59,0,1.47-3,3-6,4.53-9.13a128.29,128.29,0,0,1,11.58-19.13,20.59,20.59,0,0,1,3.7-3.93c1.83-1.46,3.22-.84,3.4,1.45a19.93,19.93,0,0,1-.29,4.21c-.18,1.37-.51,2.72-.91,4.82,1.34-.35,2.27-.33,2.76-.77a31.79,31.79,0,0,0,3.09-3.46c3-3.55,5.86-7.18,8.93-10.64,1-1.17,2.36-2.93,4.23-1.73s.82,3.09.19,4.56c-2.37,5.58-4.75,11.17-7.38,16.63-2.24,4.65-4.82,9.14-7.29,13.68-.66,1.22-1.2,2.83-2.92,2.72-1.92-.12-2.28-2-2.74-3.36C465.85,59.43,465.35,57.06,464.65,54.34Zm12.27-7.17c-.19.3-.39.59-.59.89-1.16,1.49-2.34,2.95-3.46,4.46-.79,1-1.5,2.16-2.39,3.46-3.33-6.85-4.61-7.25-8.16-3a2.26,2.26,0,0,0,.74,0c3.43-1.44,3.72-1.3,4.23,2.1a16,16,0,0,0,.64,3.42c.28.74,1,1.67,1.7,1.77A2.62,2.62,0,0,0,471.75,59c1.6-3.62,3-7.33,4.49-11l.58-.9.11-.26Z"/></g></g></svg>